# xmcd
# 
# Track frame offsets:
#     150
#     21947
#     47513
#     71467
#     105948
#     128709
#     152364
#     175329
#     192983
#     210364
#     228853
# 
# Disc length: 3311
# 
# Revision: 1
# Processed by: cddbd v1.5.2PL0 Copyright (c) Steve Scherf et al.
# Submitted via: fre:ac v1.0.27
# 
DISCID=7f0ced0b
DTITLE=Ian Siegal and the Youngest Sons - The Skinny
DYEAR=2011
DGENRE=Blues
TTITLE0=The Skinny
TTITLE1=Stud Spider
TTITLE2=Master Plan
TTITLE3=Hound Dog in the Manger
TTITLE4=Picnic Jam
TTITLE5=Natch'l Low (Coolin' Board)
TTITLE6=Better Than Myself
TTITLE7=Devil's in the Details
TTITLE8=Moonshine Minnie
TTITLE9=Garry's Nite Out
TTITLE10=Hopper (Blues for Dennis)
EXTD=
EXTT0=
EXTT1=
EXTT2=
EXTT3=
EXTT4=
EXTT5=
EXTT6=
EXTT7=
EXTT8=
EXTT9=
EXTT10=
PLAYORDER=
